<?xml version="1.0" encoding="UTF-8" standalone="no"?>
<svg width="325px" height="117px" viewBox="0 0 325 117" version="1.1" xmlns="http://www.w3.org/2000/svg" xmlns:xlink="http://www.w3.org/1999/xlink">
    <!-- Generator: Sketch 3.7.2 (28276) - http://www.bohemiancoding.com/sketch -->
    <title>Group</title>
    <desc>Created with Sketch.</desc>
    <defs></defs>
    <g id="Page-1" stroke="none" stroke-width="1" fill="none" fill-rule="evenodd">
        <g id="Artboard-1-Copy-11" transform="translate(-64.000000, -190.000000)" fill="#000000">
            <g id="Group" transform="translate(64.000000, 190.000000)">
                <path d="M31.0981224,2.10567797 L22.6037279,29.7271186 L22.3877687,29.7271186 L18.5724898,15.0149153 L13.8213878,1.24025424 L0,1.24025424 L0,3.18745763 L17.9965986,52.2281356 L25.3392109,52.2281356 L33.6896327,29.1501695 L33.9055918,29.1501695 L42.6159456,52.2281356 L49.5986259,52.2281356 L67.5952245,3.18745763 L67.5952245,1.24025424 L53.7738367,1.24025424 L49.0947211,15.0149153 L45.5673878,29.7271186 L45.3514286,29.7271186 L36.497102,2.10567797 L31.0981224,2.10567797 Z M122.448857,26.4817797 C122.448857,9.0290678 109.635279,0.446949153 96.7497143,0.446949153 C83.6481905,0.446949153 70.7626259,9.0290678 70.7626259,26.4817797 C70.7626259,44.0066102 83.2162721,52.5166102 96.5337551,52.5166102 C111.794871,52.5166102 122.448857,41.9151695 122.448857,26.4817797 L122.448857,26.4817797 Z M83.9361361,26.4817797 C83.9361361,17.2505932 90.1989524,12.9955932 96.7497143,12.9955932 C103.012531,12.9955932 109.275347,17.4669492 109.275347,26.4817797 C109.275347,35.4966102 102.868558,40.0400847 96.6057415,40.0400847 C90.126966,40.0400847 83.9361361,35.4966102 83.9361361,26.4817797 L83.9361361,26.4817797 Z M155.274653,22.9479661 L135.262435,1.09601695 L130.58332,1.09601695 L130.58332,51.7233051 L143.75683,51.7233051 L143.75683,28.4289831 L154.482803,39.6794915 L155.994517,39.6794915 L166.72049,28.4289831 L166.72049,51.7233051 L179.894,51.7233051 L179.894,1.09601695 L175.214884,1.09601695 L155.274653,22.9479661 Z M222.150014,1.24025424 L190.691959,1.24025424 L190.691959,51.7233051 L222.797891,51.7233051 L222.797891,39.6794915 L203.865469,39.6794915 L203.865469,31.4579661 L220.710286,31.4579661 L220.710286,19.9189831 L203.865469,19.9189831 L203.865469,12.7071186 L222.150014,12.7071186 L222.150014,1.24025424 Z M271.53268,51.8675424 L275.419946,51.8675424 L275.419946,1.24025424 L262.246435,1.24025424 L262.246435,25.9048305 L235.971401,1.02389831 L231.868177,1.02389831 L231.868177,51.7233051 L245.041687,51.7233051 L245.041687,25.6884746 L271.53268,51.8675424 Z" id="Women-Copy-3"></path>
                <path d="M127.446422,98.0933051 C132.413483,94.7037288 134.86102,89.1505932 134.933007,83.3811017 C134.933007,74.5105085 128.958136,65.495678 116.792435,65.495678 C109.377837,65.4235593 102.107211,65.495678 94.6206259,65.495678 L94.6206259,115.978729 L107.794136,115.978729 L107.794136,100.184746 L114.70483,100.184746 L123.343197,115.978729 L137.308558,115.978729 L137.308558,114.103644 L127.446422,98.0933051 Z M107.578177,89.4390678 L107.578177,76.9625424 L116.720449,76.9625424 C120.463741,76.9625424 122.191415,79.9194068 122.191415,83.0926271 C122.191415,86.2658475 120.391755,89.4390678 116.720449,89.4390678 L107.578177,89.4390678 Z M173.877646,109.776525 L176.829088,116.050847 L190.434517,116.050847 L190.434517,114.247881 L167.542844,65.0629661 L161.495986,65.0629661 L138.388354,114.247881 L138.388354,116.050847 L152.137755,116.050847 L155.017211,109.776525 L173.877646,109.776525 Z M164.447429,86.554322 L169.702435,98.7423729 L159.264408,98.7423729 L164.447429,86.554322 Z M212.678313,105.377288 L212.678313,76.2413559 L218.509211,76.2413559 L218.509211,65.5677966 L193.673905,65.5677966 L193.673905,76.2413559 L199.504803,76.2413559 L199.504803,105.377288 L193.098014,105.377288 L193.098014,116.050847 L219.085102,116.050847 L219.085102,105.377288 L212.678313,105.377288 Z M241.112939,65.5677966 L227.939429,65.5677966 L227.939429,116.050847 L259.325497,116.050847 L259.325497,104.22339 L241.112939,104.22339 L241.112939,65.5677966 Z M263.428721,100.545339 C263.212762,111.867966 273.43483,116.916271 284.088816,116.916271 C294.382871,116.916271 304.676925,111.65161 304.676925,101.050169 C304.676925,88.79 295.318694,86.2658475 284.592721,85.3283051 C279.769633,84.8234746 276.890177,84.1744068 276.890177,80.7848305 C276.890177,76.9625424 280.777442,76.2413559 283.728884,76.2413559 C287.256218,76.2413559 290.495605,77.6837288 290.567592,81.1454237 L302.877265,81.1454237 C303.093224,70.1833898 293.231088,64.7744915 283.512925,64.7744915 C273.218871,64.7744915 263.932626,70.1112712 263.932626,81.0733051 C263.932626,91.6026271 273.146884,95.1364407 282.361143,95.7133898 C286.032449,95.9297458 291.647388,96.1461017 291.647388,100.978051 C291.647388,104.007034 287.688136,105.737881 283.944844,105.737881 C279.913605,105.737881 275.954354,104.007034 275.954354,100.545339 L263.428721,100.545339 Z" id="Rails-Copy-3"></path>
                <path d="M302.850803,43.0064505 C302.850803,35.6281651 297.433751,32 291.986267,32 C286.447484,32 281,35.6281651 281,43.0064505 C281,50.4152246 286.264887,54.012901 291.894968,54.012901 C298.346738,54.012901 302.850803,49.5310499 302.850803,43.0064505 L302.850803,43.0064505 Z M286.569216,43.0064505 C286.569216,39.1038863 289.216876,37.3050482 291.986267,37.3050482 C294.633927,37.3050482 297.281587,39.1953527 297.281587,43.0064505 C297.281587,46.8175483 294.573061,48.7383416 291.925401,48.7383416 C289.186443,48.7383416 286.569216,46.8175483 286.569216,43.0064505 L286.569216,43.0064505 Z M323.05823,53.7385019 L324.701605,53.7385019 L324.701605,32.3353766 L319.13239,32.3353766 L319.13239,42.7625402 L308.024391,32.2439103 L306.289717,32.2439103 L306.289717,53.6775244 L311.858933,53.6775244 L311.858933,42.6710739 L323.05823,53.7385019 Z" id="on"></path>
                <rect id="Rectangle-3-Copy" x="36" y="111" width="42.8027211" height="5.9000001"></rect>
                <rect id="Rectangle-3-Copy-3" x="36" y="75" width="42.8027211" height="5.9000001"></rect>
                <rect id="Rectangle-3-Copy-2" x="16" y="92" width="42.8027211" height="5.9000001"></rect>
            </g>
        </g>
    </g>
</svg>